<svg width="320" height="320" viewBox="0 0 320 320" fill="none" xmlns="http://www.w3.org/2000/svg">
  <!-- Background with gradient -->
  <defs>
    <linearGradient id="bgGradient" x1="0%" y1="0%" x2="100%" y2="100%">
      <stop offset="0%" style="stop-color:#1F2937;stop-opacity:1" />
      <stop offset="100%" style="stop-color:#111827;stop-opacity:1" />
    </linearGradient>
    <linearGradient id="deskGradient" x1="0%" y1="0%" x2="100%" y2="0%">
      <stop offset="0%" style="stop-color:#8B4513;stop-opacity:1" />
      <stop offset="100%" style="stop-color:#A0522D;stop-opacity:1" />
    </linearGradient>
    <linearGradient id="suitGradient1" x1="0%" y1="0%" x2="100%" y2="0%">
      <stop offset="0%" style="stop-color:#1E40AF;stop-opacity:1" />
      <stop offset="100%" style="stop-color:#3B82F6;stop-opacity:1" />
    </linearGradient>
    <linearGradient id="suitGradient2" x1="0%" y1="0%" x2="100%" y2="0%">
      <stop offset="0%" style="stop-color:#92400E;stop-opacity:1" />
      <stop offset="100%" style="stop-color:#D97706;stop-opacity:1" />
    </linearGradient>
  </defs>
  
  <!-- Background -->
  <rect width="320" height="320" fill="url(#bgGradient)"/>
  
  <!-- City skyline with window lights -->
  <g transform="translate(160 60)">
    <!-- Buildings -->
    <rect x="-140" y="-40" width="35" height="60" fill="#374151" rx="3"/>
    <rect x="-95" y="-55" width="30" height="75" fill="#4B5563" rx="3"/>
    <rect x="-55" y="-45" width="25" height="65" fill="#6B7280" rx="3"/>
    <rect x="-20" y="-60" width="30" height="80" fill="#374151" rx="3"/>
    <rect x="20" y="-50" width="35" height="70" fill="#4B5563" rx="3"/>
    <rect x="65" y="-65" width="25" height="85" fill="#6B7280" rx="3"/>
    <rect x="100" y="-40" width="30" height="60" fill="#374151" rx="3"/>
    <rect x="140" y="-55" width="25" height="75" fill="#4B5563" rx="3"/>
    
    <!-- Window lights -->
    <g fill="#FBBF24">
      <!-- Building 1 windows -->
      <rect x="-135" y="-35" width="4" height="6" rx="1"/>
      <rect x="-125" y="-35" width="4" height="6" rx="1"/>
      <rect x="-135" y="-25" width="4" height="6" rx="1"/>
      <rect x="-125" y="-25" width="4" height="6" rx="1"/>
      <rect x="-135" y="-15" width="4" height="6" rx="1"/>
      <rect x="-125" y="-15" width="4" height="6" rx="1"/>
      
      <!-- Building 2 windows -->
      <rect x="-90" y="-50" width="4" height="6" rx="1"/>
      <rect x="-80" y="-50" width="4" height="6" rx="1"/>
      <rect x="-90" y="-40" width="4" height="6" rx="1"/>
      <rect x="-80" y="-40" width="4" height="6" rx="1"/>
      <rect x="-90" y="-30" width="4" height="6" rx="1"/>
      <rect x="-80" y="-30" width="4" height="6" rx="1"/>
      <rect x="-90" y="-20" width="4" height="6" rx="1"/>
      <rect x="-80" y="-20" width="4" height="6" rx="1"/>
      
      <!-- Building 3 windows -->
      <rect x="-50" y="-40" width="4" height="6" rx="1"/>
      <rect x="-40" y="-40" width="4" height="6" rx="1"/>
      <rect x="-50" y="-30" width="4" height="6" rx="1"/>
      <rect x="-40" y="-30" width="4" height="6" rx="1"/>
      <rect x="-50" y="-20" width="4" height="6" rx="1"/>
      <rect x="-40" y="-20" width="4" height="6" rx="1"/>
      
      <!-- Building 4 windows -->
      <rect x="-15" y="-55" width="4" height="6" rx="1"/>
      <rect x="-5" y="-55" width="4" height="6" rx="1"/>
      <rect x="-15" y="-45" width="4" height="6" rx="1"/>
      <rect x="-5" y="-45" width="4" height="6" rx="1"/>
      <rect x="-15" y="-35" width="4" height="6" rx="1"/>
      <rect x="-5" y="-35" width="4" height="6" rx="1"/>
      <rect x="-15" y="-25" width="4" height="6" rx="1"/>
      <rect x="-5" y="-25" width="4" height="6" rx="1"/>
      
      <!-- Building 5 windows -->
      <rect x="25" y="-45" width="4" height="6" rx="1"/>
      <rect x="35" y="-45" width="4" height="6" rx="1"/>
      <rect x="25" y="-35" width="4" height="6" rx="1"/>
      <rect x="35" y="-35" width="4" height="6" rx="1"/>
      <rect x="25" y="-25" width="4" height="6" rx="1"/>
      <rect x="35" y="-25" width="4" height="6" rx="1"/>
      
      <!-- Building 6 windows -->
      <rect x="70" y="-60" width="4" height="6" rx="1"/>
      <rect x="80" y="-60" width="4" height="6" rx="1"/>
      <rect x="70" y="-50" width="4" height="6" rx="1"/>
      <rect x="80" y="-50" width="4" height="6" rx="1"/>
      <rect x="70" y="-40" width="4" height="6" rx="1"/>
      <rect x="80" y="-40" width="4" height="6" rx="1"/>
      <rect x="70" y="-30" width="4" height="6" rx="1"/>
      <rect x="80" y="-30" width="4" height="6" rx="1"/>
      
      <!-- Building 7 windows -->
      <rect x="105" y="-35" width="4" height="6" rx="1"/>
      <rect x="115" y="-35" width="4" height="6" rx="1"/>
      <rect x="105" y="-25" width="4" height="6" rx="1"/>
      <rect x="115" y="-25" width="4" height="6" rx="1"/>
      <rect x="105" y="-15" width="4" height="6" rx="1"/>
      <rect x="115" y="-15" width="4" height="6" rx="1"/>
      
      <!-- Building 8 windows -->
      <rect x="145" y="-50" width="4" height="6" rx="1"/>
      <rect x="155" y="-50" width="4" height="6" rx="1"/>
      <rect x="145" y="-40" width="4" height="6" rx="1"/>
      <rect x="155" y="-40" width="4" height="6" rx="1"/>
      <rect x="145" y="-30" width="4" height="6" rx="1"/>
      <rect x="155" y="-30" width="4" height="6" rx="1"/>
      <rect x="145" y="-20" width="4" height="6" rx="1"/>
      <rect x="155" y="-20" width="4" height="6" rx="1"/>
    </g>
  </g>
  
  <!-- Desk -->
  <g transform="translate(160 220)">
    <rect x="-120" y="-8" width="240" height="16" fill="url(#deskGradient)" rx="3"/>
    <rect x="-115" y="-4" width="230" height="8" fill="#A0522D" rx="2"/>
  </g>
  
  <!-- Business papers on desk -->
  <g transform="translate(160 210)">
    <!-- Left stack of papers -->
    <rect x="-90" y="-12" width="35" height="45" fill="#FFFFFF" rx="3"/>
    <rect x="-85" y="-8" width="25" height="2" fill="#E5E7EB" rx="1"/>
    <rect x="-85" y="-4" width="20" height="2" fill="#E5E7EB" rx="1"/>
    <rect x="-85" y="0" width="22" height="2" fill="#E5E7EB" rx="1"/>
    <rect x="-85" y="4" width="18" height="2" fill="#E5E7EB" rx="1"/>
    <rect x="-85" y="8" width="24" height="2" fill="#E5E7EB" rx="1"/>
    <rect x="-85" y="12" width="16" height="2" fill="#E5E7EB" rx="1"/>
    <rect x="-85" y="16" width="21" height="2" fill="#E5E7EB" rx="1"/>
    
    <!-- Right stack of papers -->
    <rect x="55" y="-12" width="35" height="45" fill="#FFFFFF" rx="3"/>
    <rect x="60" y="-8" width="25" height="2" fill="#E5E7EB" rx="1"/>
    <rect x="60" y="-4" width="20" height="2" fill="#E5E7EB" rx="1"/>
    <rect x="60" y="0" width="22" height="2" fill="#E5E7EB" rx="1"/>
    <rect x="60" y="4" width="18" height="2" fill="#E5E7EB" rx="1"/>
    <rect x="60" y="8" width="24" height="2" fill="#E5E7EB" rx="1"/>
    <rect x="60" y="12" width="16" height="2" fill="#E5E7EB" rx="1"/>
    <rect x="60" y="16" width="21" height="2" fill="#E5E7EB" rx="1"/>
  </g>
  
  <!-- Professional handshake -->
  <g transform="translate(160 170)">
    <!-- Left person's arm and hand -->
    <path d="M-45 -15 L-25 -10 L-20 0 L-30 5 L-40 -5 Z" fill="#F3D3BD" stroke="#E5D3C3" stroke-width="1"/>
    <path d="M-30 5 L-20 0 L-15 10 L-25 15 L-35 10 Z" fill="#F3D3BD" stroke="#E5D3C3" stroke-width="1"/>
    
    <!-- Right person's arm and hand -->
    <path d="M45 -15 L25 -10 L20 0 L30 5 L40 -5 Z" fill="#F3D3BD" stroke="#E5D3C3" stroke-width="1"/>
    <path d="M30 5 L20 0 L15 10 L25 15 L35 10 Z" fill="#F3D3BD" stroke="#E5D3C3" stroke-width="1"/>
    
    <!-- Left person's suit jacket -->
    <path d="M-50 -20 L-40 -20 L-40 -10 L-50 -10 Z" fill="url(#suitGradient1)" rx="2"/>
    <rect x="-47" y="-17" width="6" height="10" fill="#FFFFFF" rx="1"/>
    
    <!-- Right person's suit jacket -->
    <path d="M50 -20 L40 -20 L40 -10 L50 -10 Z" fill="url(#suitGradient2)" rx="2"/>
    <rect x="47" y="-17" width="6" height="10" fill="#FFFFFF" rx="1"/>
    
    <!-- Handshake connection -->
    <path d="M-20 0 L20 0 L20 10 L-20 10 Z" fill="#F3D3BD" stroke="#E5D3C3" stroke-width="1"/>
    <path d="M-15 10 L15 10 L15 20 L-15 20 Z" fill="#F3D3BD" stroke="#E5D3C3" stroke-width="1"/>
    
    <!-- Fingers detail -->
    <path d="M-18 2 L-12 2 L-12 8 L-18 8 Z" fill="#F3D3BD"/>
    <path d="M-16 4 L-14 4 L-14 6 L-16 6 Z" fill="#E5D3C3"/>
    <path d="M12 2 L18 2 L18 8 L12 8 Z" fill="#F3D3BD"/>
    <path d="M14 4 L16 4 L16 6 L14 6 Z" fill="#E5D3C3"/>
  </g>
  
  <!-- Subtle glow effect -->
  <defs>
    <radialGradient id="glow" cx="50%" cy="50%" r="50%">
      <stop offset="0%" style="stop-color:#10B981;stop-opacity:0.15" />
      <stop offset="100%" style="stop-color:#10B981;stop-opacity:0" />
    </radialGradient>
  </defs>
  <circle cx="160" cy="160" r="150" fill="url(#glow)"/>
</svg>
